<svg width="13" height="15" viewBox="0 0 13 15" fill="none" xmlns="http://www.w3.org/2000/svg">
<g opacity="0.7">
<path d="M3.91737 5.51661L5.21188 7.52533L6.11952 6.48377L4.76549 4.89167C5.34579 4.04355 5.197 2.64489 4.334 1.49918C3.3222 0.145156 1.70034 -0.375624 0.718303 0.353465C-0.263736 1.08255 -0.233974 2.77881 0.777824 4.13283C1.65571 5.29342 2.95021 5.82908 3.91737 5.51661Z" fill="#030A1B"/>
<path d="M7.77171 8.43262L6.78967 9.9652L9.17037 13.6404C9.5126 14.1761 10.2417 14.31 10.7625 13.9231L10.8517 13.8487C11.3576 13.4618 11.4469 12.7328 11.0303 12.2417L7.77171 8.43262Z" fill="#030A1B"/>
<path d="M12.9208 1.60347C12.7869 1.43979 12.534 1.45467 12.4149 1.61834C12.4149 1.61834 10.7187 3.79073 10.2425 4.40079C10.1681 4.49006 10.0342 4.50494 9.94495 4.44542C9.85567 4.37103 9.82592 4.25199 9.90031 4.14784L11.9388 1.27612C12.0281 1.15708 12.0281 0.978533 11.9239 0.859498C11.79 0.695825 11.537 0.710701 11.418 0.874374C11.418 0.874374 9.72177 3.04676 9.24563 3.65682C9.17123 3.74609 9.03731 3.76097 8.94804 3.70145C8.85876 3.62706 8.829 3.50802 8.90339 3.40387C9.36465 2.76405 10.9568 0.517274 10.9568 0.517274C11.0758 0.353601 11.0163 0.115524 10.8228 0.0262475C10.6889 -0.03327 10.5252 0.01137 10.4211 0.130405L8.12967 3.07652L7.83209 3.46339C7.5345 3.86513 7.40058 4.34127 7.4601 4.7579L7.59401 5.6209L1.89521 12.2273C1.47859 12.7184 1.56787 13.4474 2.07377 13.8343L2.16304 13.9087C2.66894 14.2956 3.39803 14.1617 3.75513 13.626L8.45701 6.29047L9.3349 6.17144C9.75152 6.11192 10.1681 5.84409 10.4806 5.44234L10.7782 5.05548L12.9357 2.02009C13.025 1.90105 13.025 1.7225 12.9208 1.60347Z" fill="#030A1B"/>
</g>
</svg>
